<mxfile host="Electron" agent="Mozilla/5.0 (Windows NT 10.0; Win64; x64) AppleWebKit/537.36 (KHTML, like Gecko) draw.io/24.7.17 Chrome/128.0.6613.36 Electron/32.0.1 Safari/537.36" version="24.7.17">
  <diagram name="Pagina-1" id="bMyAvzw6Igu0qY_sgPfR">
    <mxGraphModel dx="568" dy="329" grid="1" gridSize="10" guides="1" tooltips="1" connect="1" arrows="1" fold="1" page="1" pageScale="1" pageWidth="827" pageHeight="1169" math="1" shadow="0">
      <root>
        <mxCell id="0" />
        <mxCell id="1" parent="0" />
        <mxCell id="hZtr5Aev3rLhm0cG1lmb-7" value="" style="shape=cube;whiteSpace=wrap;html=1;boundedLbl=1;backgroundOutline=1;darkOpacity=0.05;darkOpacity2=0.1;fillColor=#DAE8FC;strokeColor=none;gradientColor=#F2F5FC;" vertex="1" parent="1">
          <mxGeometry x="300" y="320" width="210" height="140" as="geometry" />
        </mxCell>
        <mxCell id="hZtr5Aev3rLhm0cG1lmb-14" value="" style="shape=cube;whiteSpace=wrap;html=1;boundedLbl=1;backgroundOutline=1;darkOpacity=0.05;darkOpacity2=0.1;fillColor=none;" vertex="1" parent="1">
          <mxGeometry x="300" y="290" width="210" height="170" as="geometry" />
        </mxCell>
        <mxCell id="hZtr5Aev3rLhm0cG1lmb-15" value="" style="shape=cube;whiteSpace=wrap;html=1;boundedLbl=1;backgroundOutline=1;darkOpacity=0.05;darkOpacity2=0.1;fillColor=#787878;strokeColor=default;gradientColor=#b3b3b3;" vertex="1" parent="1">
          <mxGeometry x="350" y="380" width="120" height="50" as="geometry" />
        </mxCell>
        <mxCell id="hZtr5Aev3rLhm0cG1lmb-16" value="" style="shape=cube;whiteSpace=wrap;html=1;boundedLbl=1;backgroundOutline=1;darkOpacity=0.05;darkOpacity2=0.1;dashed=1;dashPattern=1 4;fillColor=none;shadow=0;fontColor=default;pointerEvents=1;" vertex="1" parent="1">
          <mxGeometry x="350" y="320" width="120" height="80" as="geometry" />
        </mxCell>
        <mxCell id="hZtr5Aev3rLhm0cG1lmb-17" value="" style="endArrow=classic;startArrow=classic;html=1;rounded=0;" edge="1" parent="1">
          <mxGeometry width="50" height="50" relative="1" as="geometry">
            <mxPoint x="340" y="380" as="sourcePoint" />
            <mxPoint x="340" y="340" as="targetPoint" />
          </mxGeometry>
        </mxCell>
        <mxCell id="hZtr5Aev3rLhm0cG1lmb-19" value="\(h\)" style="edgeLabel;html=1;align=center;verticalAlign=middle;resizable=0;points=[];" vertex="1" connectable="0" parent="hZtr5Aev3rLhm0cG1lmb-17">
          <mxGeometry x="-0.0154" relative="1" as="geometry">
            <mxPoint as="offset" />
          </mxGeometry>
        </mxCell>
        <mxCell id="hZtr5Aev3rLhm0cG1lmb-18" value="" style="endArrow=classic;startArrow=classic;html=1;rounded=0;" edge="1" parent="1">
          <mxGeometry width="50" height="50" relative="1" as="geometry">
            <mxPoint x="490" y="430" as="sourcePoint" />
            <mxPoint x="490" y="340" as="targetPoint" />
          </mxGeometry>
        </mxCell>
        <mxCell id="hZtr5Aev3rLhm0cG1lmb-20" value="\(h+d\)" style="edgeLabel;html=1;align=center;verticalAlign=middle;resizable=0;points=[];" vertex="1" connectable="0" parent="hZtr5Aev3rLhm0cG1lmb-18">
          <mxGeometry x="0.0282" relative="1" as="geometry">
            <mxPoint as="offset" />
          </mxGeometry>
        </mxCell>
        <mxCell id="hZtr5Aev3rLhm0cG1lmb-21" value="" style="endArrow=classic;startArrow=classic;html=1;rounded=0;" edge="1" parent="1">
          <mxGeometry width="50" height="50" relative="1" as="geometry">
            <mxPoint x="470" y="440" as="sourcePoint" />
            <mxPoint x="370" y="440" as="targetPoint" />
          </mxGeometry>
        </mxCell>
        <mxCell id="hZtr5Aev3rLhm0cG1lmb-22" value="\(s\)" style="edgeLabel;html=1;align=center;verticalAlign=middle;resizable=0;points=[];" vertex="1" connectable="0" parent="hZtr5Aev3rLhm0cG1lmb-21">
          <mxGeometry x="-0.0154" relative="1" as="geometry">
            <mxPoint as="offset" />
          </mxGeometry>
        </mxCell>
        <mxCell id="hZtr5Aev3rLhm0cG1lmb-24" value="" style="endArrow=none;html=1;rounded=0;" edge="1" parent="1">
          <mxGeometry width="50" height="50" relative="1" as="geometry">
            <mxPoint x="490" y="290" as="sourcePoint" />
            <mxPoint x="490" y="320" as="targetPoint" />
          </mxGeometry>
        </mxCell>
      </root>
    </mxGraphModel>
  </diagram>
</mxfile>
